<svg xmlns="http://www.w3.org/2000/svg" version="1.1" xmlns:xlink="http://www.w3.org/1999/xlink" xmlns:svgjs="http://svgjs.dev/svgjs" width="100%" height="100%" viewBox="0 0 1000 600"><rect width="1000" height="600" x="0" y="0" fill="#e2d3f4"/><g><circle r="166.66666666666666" cx="364.4730784098307" cy="386.69523238296307" fill="#013dc4" transform="matrix(0.6319311606448412,0,0,0.6319311606448413,0,55.63522676759355)"/><path d="M440.1442786731187 311.6952340371075L458.4127606210664 311.6952340371075L418.286302668306 461.69522958415365L400.7473926831358 461.69522958415365L370.9808566018154 360.75165281426405Q369.66762706881593 356.4325867946215 368.4711290498609 352.0843378964678Q367.30381390941693 347.706906119803 366.28241316152855 343.76721752080476Q365.231829535129 339.79834604329534 364.5898062078848 336.7925095566522Q363.91860000212955 333.757490191498 363.5975883385075 332.2107976304098L363.5975883385075 332.2107976304098Q363.3933081889298 333.757490191498 362.8388334972189 336.73414379963Q362.2551759269969 339.7107974077621 361.40887245017507 343.6213031282492Q360.5333860948421 347.5026259702253 359.3368880758871 351.9092406254012Q358.16957293544317 356.31585528057707 356.8271605239326 360.8392014497973L356.8271605239326 360.8392014497973L327.906927919434 461.69522958415365L310.3680179342639 461.69522958415365L270.53338876661445 311.6952340371075L288.71432207902876 311.6952340371075L312.81937972919616 405.780834356889Q314.04506062666223 410.50846067568693 315.1248271315729 415.0609897234183Q316.20459363648354 419.64270164966075 317.0800799918165 423.93258479079225Q317.95556634714944 428.2516508104348 318.6559554314158 432.3664366804997Q319.3855273941933 436.45203967205344 319.9983678429263 440.36254539254065L319.9983678429263 440.36254539254065Q320.52365965612614 436.3644910365202 321.3407802544369 431.9870592598554Q322.1579008527476 427.63881036170176 323.1209358436139 423.1154641924815Q324.1131537129912 418.5921180232612 325.2804688534352 413.98122321850764Q326.4477839938791 409.37032841375407 327.7901964053897 404.75943360900055L327.7901964053897 404.75943360900055L354.78435902815573 311.6952340371075L372.7318293124813 311.6952340371075L400.83494131866917 405.4598226932669Q402.294085244224 410.30418052610923 403.5197661416902 415.00262396639613Q404.74544703915626 419.7302502851941 405.70848203002254 424.1952306973921Q406.7006998993999 428.6602111095902 407.45945474068844 432.7166312226329Q408.218209581977 436.7730513356756 408.86023290922117 440.36254539254065L408.86023290922117 440.36254539254065Q409.56062199348753 435.31390741012063 410.582022741376 429.798343371523Q411.6034234892644 424.2535964544143 413.0042016577972 418.18355772410587Q414.3757969478188 412.14270187230846 416.03922102295144 405.6641028428446L416.03922102295144 405.6641028428446L440.1442786731187 311.6952340371075Z " fill="#e2d3f4" transform="matrix(0.6319311606448412,0,0,0.6319311606448413,0,55.63522676759355)"/><path d="M771.837687367747 320.63024945431897L788.7871453846636 320.63024945431897L751.5579045328101 459.7999207114297L735.285341804109 459.7999207114297L707.6680140449158 366.14468863393046Q706.4496025261278 362.13746852769464 705.3394942534544 358.10317260993014Q704.2564617923096 354.041800880637 703.3088083888078 350.38656632427325Q702.3340791737776 346.7042559563808 701.7384113201479 343.91544736893286Q701.1156676549896 341.09956296995625 700.8178337281747 339.6645449589394L700.8178337281747 339.6645449589394Q700.6283030474744 341.09956296995625 700.1138626284306 343.8612957458756Q699.5723463978582 346.62302852179494 698.7871478635282 350.2511872666301Q697.9748735176695 353.85227019993664 696.8647652449961 357.94071774075843Q695.7817327838513 362.0291652815801 694.5362454535348 366.22591606851637L694.5362454535348 366.22591606851637L667.7041162286715 459.7999207114297L651.4315534999705 459.7999207114297L614.4730707634031 320.63024945431897L631.3413013457339 320.63024945431897L653.7059216683747 407.92266582259236Q654.8431057525767 412.3089472902289 655.8449107791357 416.5327738886937Q656.8467158056947 420.7836762986872 657.6589901515533 424.7638205933944Q658.4712644974119 428.7710406996303 659.1210839740988 432.58873012516585Q659.7979792623144 436.3793437391727 660.3665713044153 440.00750248400794L660.3665713044153 440.00750248400794Q660.8539359119304 436.29811630458687 661.6120586347319 432.23674457529376Q662.3701813575333 428.20244865752926 663.2636831379778 424.00569787059305Q664.1842607299509 419.80894708365685 665.2672931910956 415.5309688621348Q666.3503256522405 411.25299064061267 667.595812982557 406.9750124190906L667.595812982557 406.9750124190906L692.6409386465313 320.63024945431897L709.292562736633 320.63024945431897L735.3665692386949 407.6248318957775Q736.7203598151259 412.1194166095285 737.857543899328 416.4786222656365Q738.99472798353 420.864903733273 739.8882297639746 425.00750289715205Q740.8088073559476 429.150102061031 741.5127784556918 432.9136398635093Q742.2167495554359 436.6771776659876 742.8124174090656 440.00750248400794L742.8124174090656 440.00750248400794Q743.4622368857524 435.32338708955655 744.4098902892542 430.2060587106472Q745.3575436927558 425.0616545202093 746.6571826461297 419.4298857222562Q747.9297457879749 413.82519273583165 749.4730670451063 407.81436257647783L749.4730670451063 407.81436257647783L771.837687367747 320.63024945431897ZM848.4622339937438 353.58151208465046L848.4622339937438 353.58151208465046Q861.7835332658252 353.58151208465046 871.3142189238997 359.4840389978898Q880.8178287704457 365.35949009960046 885.8810055262977 375.9732082188198Q890.9171064706211 386.5869263380392 890.9171064706211 400.77465157903646L890.9171064706211 400.77465157903646L890.9171064706211 410.57609535239715L818.8683719929613 410.57609535239715Q819.1391301082475 428.9605713803307 827.9929204781065 438.572484472991Q836.8467108479655 448.1843975656514 852.9297428959662 448.1843975656514L852.9297428959662 448.1843975656514Q862.8394899154414 448.1843975656514 870.4477929549838 446.3703181932338Q878.0560959945262 444.5562388208162 886.2600668876985 441.03638332209556L886.2600668876985 441.03638332209556L886.2600668876985 454.9533504478066Q878.3539299213411 458.4732059465273 870.583172012627 460.09775463824457Q862.8394899154414 461.69522751843317 852.2799234192794 461.69522751843317L852.2799234192794 461.69522751843317Q837.2257722093661 461.69522751843317 826.0434620480457 455.5760941129649Q814.8611518867255 449.429884895968 808.6607910466712 437.5165278233748Q802.4875060181457 425.63024656231033 802.4875060181457 408.4100304301075L802.4875060181457 408.4100304301075Q802.4875060181457 391.54179984777676 808.1463506276275 379.2223056022543Q813.8051952371092 366.9028113567319 824.1481552410423 360.2421617206912Q834.4640394334468 353.58151208465046 848.4622339937438 353.58151208465046ZM848.2727033130434 366.5237499953312L848.2727033130434 366.5237499953312Q835.6012235176489 366.5237499953312 828.101223724221 374.8089483230891Q820.5741481192645 383.0670708393185 819.1391301082475 397.9316913685313L819.1391301082475 397.9316913685313L874.3467098151052 397.9316913685313Q874.2654823805194 388.5905363911571 871.4495979815429 381.49667377065845Q868.6337135825663 374.40281115015983 862.9207173500273 370.4768184785098Q857.2077211174883 366.5237499953312 848.2727033130434 366.5237499953312ZM956.7925559197554 353.77104276535084L956.7925559197554 353.77104276535084Q975.4477900629752 353.77104276535084 984.4911111135345 362.13746852769464Q993.5344321640939 370.50389429003843 993.5344321640939 388.8883703179719L993.5344321640939 388.8883703179719L993.5344321640939 459.7999207114297L982.0001364529014 459.7999207114297L978.9676455616958 444.3667081401159L978.2095228388945 444.3667081401159Q973.823241371258 450.0797043726548 969.0578985422206 453.95154542124766Q964.2925557131834 457.79631065831177 958.0651190616006 459.74576908837247Q951.8376824100178 461.69522751843317 942.7943613594585 461.69522751843317L942.7943613594585 461.69522751843317Q933.263675701384 461.69522751843317 925.8990549655991 458.3649027004128Q918.5073584182858 455.03457788239245 914.2835318198208 448.2927008117659Q910.0326294098275 441.5237479296107 910.0326294098275 431.15371211414896L910.0326294098275 431.15371211414896Q910.0326294098275 415.5309688621348 922.4333510899357 407.16454309979093Q934.8069969585154 398.7710415259185 960.1228807377759 398.01291880311715L960.1228807377759 398.01291880311715L978.10121959278 397.25479608031577L978.10121959278 390.89198037108986Q978.10121959278 377.3540746067795 972.3069959256552 371.9389123010553Q966.4856964470017 366.5237499953312 955.9261299508396 366.5237499953312L955.9261299508396 366.5237499953312Q947.7492348691961 366.5237499953312 940.3033866988254 368.9064214098498Q932.8846143399833 371.2620170128398 926.2239647039426 374.5111143962743L926.2239647039426 374.5111143962743L921.3773944403194 362.5165298890953Q928.4171054377609 358.88837114426013 937.5687297344348 356.34324486056977Q946.69327821958 353.77104276535084 956.7925559197554 353.77104276535084ZM977.9116889120796 418.02194352276786L977.9116889120796 408.4100304301075L962.0181875447793 409.0598499067944Q942.4965274326437 409.8179726295958 934.5091630317006 415.44974142754893Q926.5217986307574 421.0544344139734 926.5217986307574 431.3432427948493L926.5217986307574 431.3432427948493Q926.5217986307574 440.27826059929413 931.9369609364816 444.5562388208162Q937.3521232422058 448.8612928538669 946.3142168581792 448.8612928538669L946.3142168581792 448.8612928538669Q960.2041081723617 448.8612928538669 969.0578985422206 441.14468656821003Q977.9116889120796 433.4280802825531 977.9116889120796 418.02194352276786L977.9116889120796 418.02194352276786ZM1059.7889429746288 448.75298960775245L1059.7889429746288 448.75298960775245Q1063.6878598347503 448.75298960775245 1067.7763073755718 448.10317013106555Q1071.8647549163936 447.42627484285003 1074.4369570116128 446.4786214393483L1074.4369570116128 446.4786214393483L1074.4369570116128 458.74396406181353Q1071.6752242356933 459.9894513921301 1066.774502349013 460.8558773610459Q1061.8737804623327 461.69522751843317 1057.2167408794098 461.69522751843317L1057.2167408794098 461.69522751843317Q1048.931542551652 461.69522751843317 1042.1625896694968 458.79811568487077Q1035.42071259887 455.9010038513083 1031.359340869577 448.9425202884528Q1027.3250449518125 442.0111125371259 1027.3250449518125 429.71869410313207L1027.3250449518125 429.71869410313207L1027.3250449518125 367.8504647602336L1012.4604244225998 367.8504647602336L1012.4604244225998 360.1338584745767L1027.4062723863985 353.9605734460511L1033.6878606610385 331.29811919659556L1043.218546319113 331.29811919659556L1043.218546319113 355.4768188916539L1073.7600617233973 355.4768188916539L1073.7600617233973 367.8504647602336L1043.218546319113 367.8504647602336L1043.218546319113 429.2313294956169Q1043.218546319113 439.05984908050624 1047.7402068443926 443.90641934412935Q1052.2618673696722 448.75298960775245 1059.7889429746288 448.75298960775245ZM1095.5560900039368 311.69523164987413L1111.3683639366513 311.69523164987413L1111.3683639366513 355.93710768764043Q1111.3683639366513 359.754797113176 1111.178833255951 363.59956235024015Q1110.9893025752508 367.47140339883293 1110.5019379677356 370.6934249707388L1110.5019379677356 370.6934249707388L1111.5578946173518 370.6934249707388Q1114.8069920007863 365.16995941890013 1119.7889413220526 361.4334974279505Q1124.7979664548473 357.6699596254722 1131.1607821640732 355.7205011954115Q1137.5506736848279 353.77104276535084 1144.6986879283836 353.77104276535084L1144.6986879283836 353.77104276535084Q1157.2618644776635 353.77104276535084 1165.6824418630645 357.75118706005804Q1174.103019248466 361.7584071662939 1178.3268458469306 370.1248329286378Q1182.577748256924 378.5183345025102 1182.577748256924 391.8396337745916L1182.577748256924 391.8396337745916L1182.577748256924 459.7999207114297L1166.9550050049097 459.7999207114297L1166.9550050049097 392.8955904242078Q1166.9550050049097 379.8450492674126 1160.9983264686134 373.3739303120722Q1155.0687237438453 366.9028113567319 1142.7763053098515 366.9028113567319L1142.7763053098515 366.9028113567319Q1131.1607821640732 366.9028113567319 1124.2564502242749 371.31616863589704Q1117.3791940960052 375.7566017265909 1114.3737790163284 384.312558169635Q1111.3683639366513 392.8955904242078 1111.3683639366513 405.2692362927875L1111.3683639366513 405.2692362927875L1111.3683639366513 459.7999207114297L1095.5560900039368 459.7999207114297L1095.5560900039368 311.69523164987413ZM1255.3033780227993 353.58151208465046L1255.3033780227993 353.58151208465046Q1268.624677294881 353.58151208465046 1278.1282871414267 359.4840389978898Q1287.6589727995013 365.35949009960046 1292.6950737438247 375.9732082188198Q1297.7582504996767 386.5869263380392 1297.7582504996767 400.77465157903646L1297.7582504996767 400.77465157903646L1297.7582504996767 410.57609535239715L1225.6824402104883 410.57609535239715Q1225.980274137303 428.9605713803307 1234.8340645071619 438.572484472991Q1243.6878548770212 448.1843975656514 1259.7708869250218 448.1843975656514L1259.7708869250218 448.1843975656514Q1269.680633944497 448.1843975656514 1277.2889369840393 446.3703181932338Q1284.8972400235818 444.5562388208162 1293.0741351052254 441.03638332209556L1293.0741351052254 441.03638332209556L1293.0741351052254 454.9533504478066Q1285.1950739503966 458.4732059465273 1277.4243160416825 460.09775463824457Q1269.680633944497 461.69522751843317 1259.0939916368063 461.69522751843317L1259.0939916368063 461.69522751843317Q1244.0669162384218 461.69522751843317 1232.8846060771014 455.5760941129649Q1221.7022959157812 449.429884895968 1215.5019350757268 437.5165278233748Q1209.3286500472013 425.63024656231033 1209.3286500472013 408.4100304301075L1209.3286500472013 408.4100304301075Q1209.3286500472013 391.54179984777676 1214.987494656683 379.2223056022543Q1220.646339266165 366.9028113567319 1230.9622234585693 360.2421617206912Q1241.3051834625023 353.58151208465046 1255.3033780227993 353.58151208465046ZM1255.113847342099 366.5237499953312L1255.113847342099 366.5237499953312Q1242.4423675467044 366.5237499953312 1234.915291941748 374.8089483230891Q1227.4152921483198 383.0670708393185 1225.980274137303 397.9316913685313L1225.980274137303 397.9316913685313L1281.1878538441608 397.9316913685313Q1281.0795505980464 388.5905363911571 1278.2907420105985 381.49667377065845Q1275.474857611622 374.40281115015983 1269.7618613790828 370.4768184785098Q1264.048865146544 366.5237499953312 1255.113847342099 366.5237499953312ZM1372.0001257111549 353.58151208465046L1372.0001257111549 353.58151208465046Q1375.140919848475 353.58151208465046 1378.552472101081 353.9064218229939Q1381.991100165216 354.23133156133736 1384.6445296950208 354.7999236034384L1384.6445296950208 354.7999236034384L1382.6679954534313 369.4750134519508Q1380.0957933582124 368.7981181637353 1376.9549992208924 368.41905680233464Q1373.8142050835725 368.0399954409339 1371.0524723076533 368.0399954409339L1371.0524723076533 368.0399954409339Q1364.770884033013 368.0399954409339 1359.1932668581173 370.55804591309567Q1353.6156496832216 373.0760963852574 1349.4459747078138 377.78728759123743Q1345.2492239208775 382.49847879721744 1342.866552506359 389.13205262172954Q1340.4838810918402 395.738550634713 1340.4838810918402 403.8342182817706L1340.4838810918402 403.8342182817706L1340.4838810918402 459.7999207114297L1324.5903797245398 459.7999207114297L1324.5903797245398 355.4768188916539L1337.722148315921 355.4768188916539L1339.4279244422241 374.70064507697464L1340.1048197304397 374.70064507697464Q1343.353917113874 368.9064214098498 1347.9026534506822 364.08692695775534Q1352.4784655990193 359.2674325056608 1358.5163715699018 356.4244722951556Q1364.5813533523126 353.58151208465046 1372.0001257111549 353.58151208465046Z " fill="#013dc4" transform="matrix(0.6319311606448412,0,0,0.6319311606448413,0,55.63522676759355)"/></g></svg>